ffmpeg started on 2016-12-08 at 03:32:22
Report written to "Output/x264/results/ffmpeg/crowd_run_2160p50slower8000k.log"
Command line:
Tools/ffmpeg/ffmpeg -benchmark -y -i Input/y4m/crowd_run_2160p50.y4m -c:v libx264 -preset slower -b:v 8000k -an Output/x264/encoded/crowd_run_2160p50slower8000k.mkv
ffmpeg version N-82227-gdb23fde Copyright (c) 2000-2016 the FFmpeg developers
  built with gcc 5.4.0 (Ubuntu 5.4.0-6ubuntu1~16.04.2) 20160609
  configuration: --prefix=/home/jaroslav/ffmpeg_build --pkg-config-flags=--static --extra-cflags=-I/home/jaroslav/ffmpeg_build/include --extra-ldflags=-L/home/jaroslav/ffmpeg_build/lib --bindir=/home/jaroslav/bin --enable-gpl --enable-libass --enable-libfdk-aac --enable-libfreetype --enable-libmp3lame --enable-libopus --enable-libtheora --enable-libvorbis --enable-libvpx --enable-libx264 --enable-libx265 --enable-nvenc --enable-libmfx --enable-libxvid --enable-libgsm --enable-libopencore-amrnb --enable-version3 --enable-nonfree
  libavutil      55. 35.100 / 55. 35.100
  libavcodec     57. 66.101 / 57. 66.101
  libavformat    57. 57.100 / 57. 57.100
  libavdevice    57.  2.100 / 57.  2.100
  libavfilter     6. 66.100 /  6. 66.100
  libswscale      4.  3.100 /  4.  3.100
  libswresample   2.  4.100 /  2.  4.100
  libpostproc    54.  2.100 / 54.  2.100
Input #0, yuv4mpegpipe, from 'Input/y4m/crowd_run_2160p50.y4m':
  Duration: 00:00:10.00, start: 0.000000, bitrate: 4976642 kb/s
    Stream #0:0: Video: rawvideo (I420 / 0x30323449), yuv420p(progressive), 3840x2160, SAR 1:1 DAR 16:9, 50 fps, 50 tbr, 50 tbn, 50 tbc
[libx264 @ 0x27a11c0] using SAR=1/1
[libx264 @ 0x27a11c0] DPB size (8 frames, 259200 mbs) > level limit (5 frames, 184320 mbs)
[libx264 @ 0x27a11c0] using cpu capabilities: MMX2 SSE2Fast SSSE3 SSE4.2 AVX FMA3 AVX2 LZCNT BMI2
[libx264 @ 0x27a11c0] profile High, level 5.2
[libx264 @ 0x27a11c0] 264 - core 148 - H.264/MPEG-4 AVC codec - Copyleft 2003-2016 - http://www.videolan.org/x264.html - options: cabac=1 ref=8 deblock=1:0:0 analyse=0x3:0x133 me=umh subme=9 psy=1 psy_rd=1.00:0.00 mixed_ref=1 me_range=16 chroma_me=1 trellis=2 8x8dct=1 cqm=0 deadzone=21,11 fast_pskip=1 chroma_qp_offset=-2 threads=6 lookahead_threads=1 sliced_threads=0 nr=0 decimate=1 interlaced=0 bluray_compat=0 constrained_intra=0 bframes=3 b_pyramid=2 b_adapt=2 b_bias=0 direct=3 weightb=1 open_gop=0 weightp=2 keyint=250 keyint_min=25 scenecut=40 intra_refresh=0 rc_lookahead=60 rc=abr mbtree=1 bitrate=8000 ratetol=1.0 qcomp=0.60 qpmin=0 qpmax=69 qpstep=4 ip_ratio=1.40 aq=1:1.00
Output #0, matroska, to 'Output/x264/encoded/crowd_run_2160p50slower8000k.mkv':
  Metadata:
    encoder         : Lavf57.57.100
    Stream #0:0: Video: h264 (libx264) (H264 / 0x34363248), yuv420p, 3840x2160 [SAR 1:1 DAR 16:9], q=-1--1, 8000 kb/s, 50 fps, 1k tbn, 50 tbc
    Metadata:
      encoder         : Lavc57.66.101 libx264
    Side data:
      cpb: bitrate max/min/avg: 0/0/8000000 buffer size: 0 vbv_delay: -1
Stream mapping:
  Stream #0:0 -> #0:0 (rawvideo (native) -> h264 (libx264))
Press [q] to stop, [?] for help
frame=   11 fps=0.0 q=0.0 size=       0kB time=00:00:00.00 bitrate=N/A speed=   0x    frame=   28 fps= 28 q=0.0 size=       0kB time=00:00:00.00 bitrate=N/A speed=   0x    frame=   42 fps= 27 q=0.0 size=       0kB time=00:00:00.00 bitrate=N/A speed=   0x    frame=   54 fps= 26 q=0.0 size=       0kB time=00:00:00.00 bitrate=N/A speed=   0x    frame=   65 fps= 25 q=0.0 size=       0kB time=00:00:00.00 bitrate=N/A speed=   0x    frame=   67 fps= 12 q=0.0 size=       0kB time=00:00:00.00 bitrate=N/A speed=   0x    frame=   72 fps= 11 q=36.0 size=       1kB time=-00:00:00.01 bitrate=N/A speed=N/A    frame=   73 fps= 10 q=45.0 size=       1kB time=00:00:00.00 bitrate=5888.0kbits/s speed=0.000137x    frame=   76 fps=9.5 q=53.0 size=       1kB time=00:00:00.06 bitrate=  96.5kbits/s speed=0.00766x    frame=   79 fps=9.3 q=51.0 size=       1kB time=00:00:00.12 bitrate=  48.7kbits/s speed=0.0143x    frame=   81 fps=8.8 q=52.0 size=       1kB time=00:00:00.16 bitrate=  36.6kbits/s speed=0.0175x    frame=   83 fps=8.3 q=52.0 size=       1kB time=00:00:00.20 bitrate=  29.3kbits/s speed=0.0201x    frame=   86 fps=8.0 q=51.0 size=       1kB time=00:00:00.26 bitrate=  22.6kbits/s speed=0.0243x    frame=   88 fps=7.8 q=51.0 size=       1kB time=00:00:00.30 bitrate=  19.6kbits/s speed=0.0266x    frame=   90 fps=7.6 q=51.0 size=       1kB time=00:00:00.34 bitrate=  17.3kbits/s speed=0.0286x    frame=   92 fps=7.4 q=50.0 size=       1kB time=00:00:00.38 bitrate=  15.5kbits/s speed=0.0306x    frame=   94 fps=7.2 q=51.0 size=       1kB time=00:00:00.42 bitrate=  14.0kbits/s speed=0.0323x    frame=   96 fps=7.1 q=50.0 size=       1kB time=00:00:00.46 bitrate=  12.8kbits/s speed=0.0339x    frame=   99 fps=6.8 q=50.0 size=       1kB time=00:00:00.52 bitrate=  11.3kbits/s speed=0.0357x    frame=  102 fps=6.7 q=50.0 size=       1kB time=00:00:00.58 bitrate=  10.1kbits/s speed=0.0381x    frame=  105 fps=6.6 q=50.0 size=       1kB time=00:00:00.64 bitrate=   9.2kbits/s speed=0.0404x    frame=  107 fps=6.4 q=50.0 size=       1kB time=00:00:00.68 bitrate=   8.6kbits/s speed=0.0406x    frame=  110 fps=6.3 q=50.0 size=       1kB time=00:00:00.74 bitrate=   7.9kbits/s speed=0.0424x    frame=  113 fps=6.2 q=50.0 size=       1kB time=00:00:00.80 bitrate=   7.4kbits/s speed=0.0438x    frame=  115 fps=6.1 q=50.0 size=       1kB time=00:00:00.84 bitrate=   7.0kbits/s speed=0.0446x    frame=  117 fps=6.0 q=50.0 size=       1kB time=00:00:00.88 bitrate=   6.7kbits/s speed=0.0455x    frame=  120 fps=5.9 q=49.0 size=       1kB time=00:00:00.94 bitrate=   6.3kbits/s speed=0.0464x    frame=  121 fps=5.8 q=49.0 size=       1kB time=00:00:00.96 bitrate=   6.1kbits/s speed=0.0461x    frame=  126 fps=5.8 q=49.0 size=       1kB time=00:00:01.06 bitrate=   5.5kbits/s speed=0.0487x    frame=  127 fps=5.7 q=49.0 size=       1kB time=00:00:01.08 bitrate=   5.4kbits/s speed=0.0481x    frame=  131 fps=5.6 q=49.0 size=       1kB time=00:00:01.16 bitrate=   5.1kbits/s speed=0.0493x    frame=  134 fps=5.6 q=49.0 size=       1kB time=00:00:01.22 bitrate=   4.8kbits/s speed=0.0507x    frame=  135 fps=5.5 q=49.0 size=       1kB time=00:00:01.24 bitrate=   4.7kbits/s speed=0.0501x    frame=  138 fps=5.4 q=49.0 size=       1kB time=00:00:01.30 bitrate=   4.5kbits/s speed=0.0512x    frame=  140 fps=5.4 q=49.0 size=       1kB time=00:00:01.34 bitrate=   4.4kbits/s speed=0.0517x    frame=  142 fps=5.3 q=49.0 size=       1kB time=00:00:01.38 bitrate=   4.3kbits/s speed=0.0517x    frame=  144 fps=5.3 q=49.0 size=       1kB time=00:00:01.42 bitrate=   4.1kbits/s speed=0.052x    frame=  147 fps=5.3 q=49.0 size=       1kB time=00:00:01.48 bitrate=   4.0kbits/s speed=0.0531x    frame=  149 fps=5.2 q=49.0 size=       1kB time=00:00:01.52 bitrate=   3.9kbits/s speed=0.0535x    frame=  150 fps=5.2 q=49.0 size=       1kB time=00:00:01.54 bitrate=   3.8kbits/s speed=0.053x    frame=  152 fps=5.1 q=48.0 size=       1kB time=00:00:01.58 bitrate=   3.7kbits/s speed=0.0534x    frame=  155 fps=5.1 q=48.0 size=       1kB time=00:00:01.64 bitrate=   3.6kbits/s speed=0.0543x    frame=  157 fps=5.1 q=48.0 size=       1kB time=00:00:01.68 bitrate=   3.5kbits/s speed=0.0544x    frame=  159 fps=5.0 q=48.0 size=       1kB time=00:00:01.72 bitrate=   3.4kbits/s speed=0.0542x    frame=  163 fps=5.0 q=48.0 size=       1kB time=00:00:01.80 bitrate=   3.3kbits/s speed=0.0552x    frame=  165 fps=5.0 q=48.0 size=       1kB time=00:00:01.84 bitrate=   3.2kbits/s speed=0.0554x    frame=  166 fps=4.9 q=48.0 size=       1kB time=00:00:01.86 bitrate=   3.2kbits/s speed=0.0551x    frame=  168 fps=4.9 q=48.0 size=       1kB time=00:00:01.90 bitrate=   3.1kbits/s speed=0.0553x    frame=  171 fps=4.9 q=48.0 size=       1kB time=00:00:01.96 bitrate=   3.0kbits/s speed=0.0561x    frame=  173 fps=4.9 q=48.0 size=       1kB time=00:00:02.00 bitrate=   2.9kbits/s speed=0.0562x    frame=  175 fps=4.8 q=48.0 size=       1kB time=00:00:02.04 bitrate=   2.9kbits/s speed=0.0562x    frame=  178 fps=4.8 q=48.0 size=       1kB time=00:00:02.10 bitrate=   2.8kbits/s speed=0.0561x    frame=  183 fps=4.8 q=48.0 size=       1kB time=00:00:02.20 bitrate=   2.7kbits/s speed=0.0574x    frame=  184 fps=4.7 q=48.0 size=       1kB time=00:00:02.22 bitrate=   2.7kbits/s speed=0.0569x    frame=  188 fps=4.7 q=48.0 size=       1kB time=00:00:02.30 bitrate=   2.6kbits/s speed=0.0576x    frame=  191 fps=4.7 q=48.0 size=       1kB time=00:00:02.36 bitrate=   2.5kbits/s speed=0.0578x    frame=  193 fps=4.6 q=48.0 size=       1kB time=00:00:02.40 bitrate=   2.5kbits/s speed=0.0577x    frame=  196 fps=4.6 q=48.0 size=       1kB time=00:00:02.46 bitrate=   2.4kbits/s speed=0.058x    frame=  199 fps=4.6 q=48.0 size=       1kB time=00:00:02.52 bitrate=   2.3kbits/s speed=0.0585x    frame=  200 fps=4.6 q=48.0 size=       1kB time=00:00:02.54 bitrate=   2.3kbits/s speed=0.0581x    frame=  203 fps=4.6 q=48.0 size=       1kB time=00:00:02.60 bitrate=   2.3kbits/s speed=0.0586x    frame=  206 fps=4.5 q=48.0 size=       1kB time=00:00:02.66 bitrate=   2.2kbits/s speed=0.0585x    frame=  208 fps=4.5 q=48.0 size=       1kB time=00:00:02.70 bitrate=   2.2kbits/s speed=0.0587x    frame=  210 fps=4.5 q=48.0 size=       1kB time=00:00:02.74 bitrate=   2.1kbits/s speed=0.0588x    frame=  212 fps=4.5 q=48.0 size=       1kB time=00:00:02.78 bitrate=   2.1kbits/s speed=0.0589x    frame=  215 fps=4.5 q=48.0 size=       1kB time=00:00:02.84 bitrate=   2.1kbits/s speed=0.0593x    frame=  217 fps=4.5 q=48.0 size=       1kB time=00:00:02.88 bitrate=   2.0kbits/s speed=0.0591x    frame=  221 fps=4.4 q=48.0 size=       1kB time=00:00:02.96 bitrate=   2.0kbits/s speed=0.0593x    frame=  225 fps=4.4 q=48.0 size=       1kB time=00:00:03.04 bitrate=   1.9kbits/s speed=0.0597x    frame=  228 fps=4.4 q=48.0 size=       1kB time=00:00:03.10 bitrate=   1.9kbits/s speed=0.0599x    frame=  229 fps=4.4 q=48.0 size=       1kB time=00:00:03.12 bitrate=   1.9kbits/s speed=0.0596x    frame=  232 fps=4.4 q=48.0 size=       1kB time=00:00:03.18 bitrate=   1.9kbits/s speed=0.0599x    frame=  234 fps=4.4 q=48.0 size=       1kB time=00:00:03.22 bitrate=   1.8kbits/s speed=0.06x    frame=  236 fps=4.3 q=48.0 size=       1kB time=00:00:03.26 bitrate=   1.8kbits/s speed=0.06x    frame=  238 fps=4.3 q=48.0 size=       1kB time=00:00:03.30 bitrate=   1.8kbits/s speed=0.0601x    frame=  241 fps=4.3 q=48.0 size=       1kB time=00:00:03.36 bitrate=   1.8kbits/s speed=0.0604x    frame=  243 fps=4.3 q=48.0 size=       1kB time=00:00:03.40 bitrate=   1.7kbits/s speed=0.0604x    frame=  245 fps=4.3 q=48.0 size=       1kB time=00:00:03.44 bitrate=   1.7kbits/s speed=0.0604x    frame=  248 fps=4.3 q=48.0 size=       1kB time=00:00:03.50 bitrate=   1.7kbits/s speed=0.0605x    frame=  250 fps=4.3 q=48.0 size=       1kB time=00:00:03.54 bitrate=   1.7kbits/s speed=0.0606x    frame=  252 fps=4.3 q=48.0 size=       1kB time=00:00:03.58 bitrate=   1.6kbits/s speed=0.0605x    frame=  255 fps=4.2 q=48.0 size=       1kB time=00:00:03.64 bitrate=   1.6kbits/s speed=0.0606x    frame=  257 fps=4.2 q=48.0 size=       1kB time=00:00:03.68 bitrate=   1.6kbits/s speed=0.0606x    frame=  260 fps=4.2 q=48.0 size=       1kB time=00:00:03.74 bitrate=   1.6kbits/s speed=0.0611x    frame=  262 fps=4.2 q=48.0 size=       1kB time=00:00:03.78 bitrate=   1.6kbits/s speed=0.0609x    frame=  263 fps=4.2 q=48.0 size=       1kB time=00:00:03.80 bitrate=   1.5kbits/s speed=0.0606x    frame=  267 fps=4.2 q=47.0 size=       1kB time=00:00:03.88 bitrate=   1.5kbits/s speed=0.0613x    frame=  269 fps=4.2 q=47.0 size=       1kB time=00:00:03.92 bitrate=   1.5kbits/s speed=0.0613x    frame=  270 fps=4.2 q=47.0 size=       1kB time=00:00:03.94 bitrate=   1.5kbits/s speed=0.0609x    frame=  272 fps=4.2 q=47.0 size=       1kB time=00:00:03.98 bitrate=   1.5kbits/s speed=0.0609x    frame=  276 fps=4.2 q=47.0 size=       1kB time=00:00:04.06 bitrate=   1.4kbits/s speed=0.0615x    frame=  277 fps=4.1 q=47.0 size=       1kB time=00:00:04.08 bitrate=   1.4kbits/s speed=0.061x    frame=  279 fps=4.1 q=47.0 size=       1kB time=00:00:04.12 bitrate=   1.4kbits/s speed=0.0611x    frame=  282 fps=4.1 q=47.0 size=       1kB time=00:00:04.18 bitrate=   1.4kbits/s speed=0.0613x    frame=  284 fps=4.1 q=47.0 size=       1kB time=00:00:04.22 bitrate=   1.4kbits/s speed=0.0614x    frame=  285 fps=4.1 q=47.0 size=       1kB time=00:00:04.24 bitrate=   1.4kbits/s speed=0.0611x    frame=  288 fps=4.1 q=47.0 size=       1kB time=00:00:04.30 bitrate=   1.4kbits/s speed=0.0615x    frame=  290 fps=4.1 q=47.0 size=       1kB time=00:00:04.34 bitrate=   1.4kbits/s speed=0.0616x    frame=  292 fps=4.1 q=47.0 size=       1kB time=00:00:04.38 bitrate=   1.3kbits/s speed=0.0613x    frame=  294 fps=4.1 q=47.0 size=       1kB time=00:00:04.42 bitrate=   1.3kbits/s speed=0.0613x    frame=  298 fps=4.1 q=47.0 size=       1kB time=00:00:04.50 bitrate=   1.3kbits/s speed=0.0616x    frame=  300 fps=4.1 q=47.0 size=       1kB time=00:00:04.54 bitrate=   1.3kbits/s speed=0.0614x    frame=  301 fps=4.0 q=47.0 size=       1kB time=00:00:04.56 bitrate=   1.3kbits/s speed=0.0612x    frame=  305 fps=4.1 q=47.0 size=       1kB time=00:00:04.64 bitrate=   1.3kbits/s speed=0.0617x    frame=  307 fps=4.0 q=47.0 size=       1kB time=00:00:04.68 bitrate=   1.3kbits/s speed=0.0617x    frame=  308 fps=4.0 q=47.0 size=       1kB time=00:00:04.70 bitrate=   1.3kbits/s speed=0.0614x    frame=  310 fps=4.0 q=47.0 size=       1kB time=00:00:04.74 bitrate=   1.2kbits/s speed=0.0613x    frame=  313 fps=4.0 q=47.0 size=       1kB time=00:00:04.80 bitrate=   1.2kbits/s speed=0.0617x    frame=  315 fps=4.0 q=47.0 size=       1kB time=00:00:04.84 bitrate=   1.2kbits/s speed=0.0617x    frame=  316 fps=4.0 q=45.0 size=       1kB time=00:00:04.86 bitrate=   1.2kbits/s speed=0.0615x    frame=  320 fps=4.0 q=48.0 size=       1kB time=00:00:04.94 bitrate=   1.2kbits/s speed=0.0618x    frame=  327 fps=4.0 q=48.0 size=    4985kB time=00:00:05.08 bitrate=8036.8kbits/s speed=0.0628x    frame=  329 fps=4.0 q=48.0 size=    4985kB time=00:00:05.12 bitrate=7974.0kbits/s speed=0.0628x    frame=  331 fps=4.0 q=48.0 size=    4985kB time=00:00:05.16 bitrate=7912.2kbits/s speed=0.0628x    frame=  333 fps=4.0 q=48.0 size=    4985kB time=00:00:05.20 bitrate=7851.3kbits/s speed=0.0629x    frame=  336 fps=4.0 q=48.0 size=    4985kB time=00:00:05.26 bitrate=7761.8kbits/s speed=0.0632x    frame=  338 fps=4.0 q=48.0 size=    4985kB time=00:00:05.30 bitrate=7703.2kbits/s speed=0.0632x    frame=  340 fps=4.0 q=48.0 size=    4985kB time=00:00:05.34 bitrate=7645.5kbits/s speed=0.063x    frame=  342 fps=4.0 q=48.0 size=    4985kB time=00:00:05.38 bitrate=7588.7kbits/s speed=0.0631x    frame=  344 fps=4.0 q=48.0 size=    4985kB time=00:00:05.42 bitrate=7532.7kbits/s speed=0.063x    frame=  347 fps=4.0 q=48.0 size=    4985kB time=00:00:05.48 bitrate=7450.2kbits/s speed=0.0633x    frame=  348 fps=4.0 q=48.0 size=    4985kB time=00:00:05.50 bitrate=7423.2kbits/s speed=0.063x    frame=  350 fps=4.0 q=48.0 size=    4985kB time=00:00:05.54 bitrate=7369.6kbits/s speed=0.063x    frame=  353 fps=4.0 q=48.0 size=    4985kB time=00:00:05.60 bitrate=7290.6kbits/s speed=0.0631x    frame=  355 fps=4.0 q=48.0 size=    4985kB time=00:00:05.64 bitrate=7238.9kbits/s speed=0.0631x    frame=  357 fps=4.0 q=48.0 size=    4985kB time=00:00:05.68 bitrate=7188.0kbits/s speed=0.063x    frame=  361 fps=4.0 q=48.0 size=    4985kB time=00:00:05.76 bitrate=7088.1kbits/s speed=0.0633x    frame=  363 fps=4.0 q=48.0 size=    4985kB time=00:00:05.80 bitrate=7039.3kbits/s speed=0.0633x    frame=  364 fps=3.9 q=48.0 size=    4985kB time=00:00:05.82 bitrate=7015.1kbits/s speed=0.0631x    frame=  366 fps=3.9 q=48.0 size=    4985kB time=00:00:05.86 bitrate=6967.2kbits/s speed=0.0631x    frame=  369 fps=3.9 q=48.0 size=    4985kB time=00:00:05.92 bitrate=6896.6kbits/s speed=0.0632x    frame=  372 fps=3.9 q=48.0 size=    4985kB time=00:00:05.98 bitrate=6827.4kbits/s speed=0.0633x    frame=  373 fps=3.9 q=48.0 size=    4985kB time=00:00:06.00 bitrate=6804.7kbits/s speed=0.0631x    frame=  376 fps=3.9 q=48.0 size=    4985kB time=00:00:06.06 bitrate=6737.3kbits/s speed=0.0634x    frame=  378 fps=3.9 q=48.0 size=    4985kB time=00:00:06.10 bitrate=6693.1kbits/s speed=0.0634x    frame=  380 fps=3.9 q=48.0 size=    4985kB time=00:00:06.14 bitrate=6649.5kbits/s speed=0.0631x    frame=  384 fps=3.9 q=48.0 size=    4985kB time=00:00:06.22 bitrate=6564.0kbits/s speed=0.0636x    frame=  386 fps=3.9 q=48.0 size=    4985kB time=00:00:06.26 bitrate=6522.1kbits/s speed=0.0632x    frame=  389 fps=3.9 q=48.0 size=    4985kB time=00:00:06.32 bitrate=6460.2kbits/s speed=0.0633x    frame=  390 fps=3.9 q=48.0 size=    4985kB time=00:00:06.34 bitrate=6439.8kbits/s speed=0.0631x    frame=  395 fps=3.9 q=48.0 size=    4985kB time=00:00:06.44 bitrate=6339.8kbits/s speed=0.0635x    frame=  397 fps=3.9 q=48.0 size=    4985kB time=00:00:06.48 bitrate=6300.7kbits/s speed=0.0636x    frame=  398 fps=3.9 q=48.0 size=    4985kB time=00:00:06.50 bitrate=6281.3kbits/s speed=0.0634x    frame=  399 fps=3.9 q=48.0 size=    4985kB time=00:00:06.52 bitrate=6262.0kbits/s speed=0.0632x    frame=  403 fps=3.9 q=48.0 size=    4985kB time=00:00:06.60 bitrate=6186.2kbits/s speed=0.0636x    frame=  405 fps=3.9 q=48.0 size=    4985kB time=00:00:06.64 bitrate=6148.9kbits/s speed=0.0634x    frame=  406 fps=3.9 q=48.0 size=    4985kB time=00:00:06.66 bitrate=6130.4kbits/s speed=0.0633x    frame=  408 fps=3.9 q=48.0 size=    4985kB time=00:00:06.70 bitrate=6093.8kbits/s speed=0.0633x    frame=  411 fps=3.8 q=48.0 size=    4985kB time=00:00:06.76 bitrate=6039.8kbits/s speed=0.0633x    frame=  414 fps=3.8 q=48.0 size=    4985kB time=00:00:06.82 bitrate=5986.6kbits/s speed=0.0633x    frame=  418 fps=3.8 q=48.0 size=    4985kB time=00:00:06.90 bitrate=5917.2kbits/s speed=0.0635x    frame=  420 fps=3.8 q=48.0 size=    4985kB time=00:00:06.94 bitrate=5883.1kbits/s speed=0.0635x    frame=  422 fps=3.8 q=48.0 size=    4985kB time=00:00:06.98 bitrate=5849.4kbits/s speed=0.0634x    frame=  424 fps=3.8 q=48.0 size=    4985kB time=00:00:07.02 bitrate=5816.1kbits/s speed=0.0635x    frame=  427 fps=3.8 q=48.0 size=    4985kB time=00:00:07.08 bitrate=5766.8kbits/s speed=0.0635x    frame=  428 fps=3.8 q=48.0 size=    4985kB time=00:00:07.10 bitrate=5750.6kbits/s speed=0.0634x    frame=  431 fps=3.8 q=48.0 size=    4985kB time=00:00:07.16 bitrate=5702.4kbits/s speed=0.0634x    frame=  434 fps=3.8 q=48.0 size=    4985kB time=00:00:07.22 bitrate=5655.0kbits/s speed=0.0636x    frame=  436 fps=3.8 q=48.0 size=    4985kB time=00:00:07.26 bitrate=5623.9kbits/s speed=0.0634x    frame=  440 fps=3.8 q=48.0 size=    4985kB time=00:00:07.34 bitrate=5562.6kbits/s speed=0.0635x    frame=  443 fps=3.8 q=48.0 size=    4985kB time=00:00:07.40 bitrate=5517.5kbits/s speed=0.0633x    frame=  447 fps=3.8 q=48.0 size=    4985kB time=00:00:07.48 bitrate=5458.5kbits/s speed=0.0636x    frame=  449 fps=3.8 q=48.0 size=    4985kB time=00:00:07.52 bitrate=5429.4kbits/s speed=0.0637x    frame=  450 fps=3.8 q=48.0 size=    4985kB time=00:00:07.54 bitrate=5415.0kbits/s speed=0.0635x    frame=  452 fps=3.8 q=48.0 size=    4985kB time=00:00:07.58 bitrate=5386.5kbits/s speed=0.0635x    frame=  455 fps=3.8 q=48.0 size=    4985kB time=00:00:07.64 bitrate=5344.2kbits/s speed=0.0635x    frame=  458 fps=3.8 q=48.0 size=    4985kB time=00:00:07.70 bitrate=5302.5kbits/s speed=0.0635x    frame=  459 fps=3.8 q=48.0 size=    4985kB time=00:00:07.72 bitrate=5288.8kbits/s speed=0.0633x    frame=  463 fps=3.8 q=48.0 size=    4985kB time=00:00:07.80 bitrate=5234.6kbits/s speed=0.0637x    frame=  465 fps=3.8 q=48.0 size=    4985kB time=00:00:07.84 bitrate=5207.9kbits/s speed=0.0637x    frame=  466 fps=3.8 q=48.0 size=    4985kB time=00:00:07.86 bitrate=5194.6kbits/s speed=0.0634x    frame=  468 fps=3.8 q=47.0 size=    4985kB time=00:00:07.90 bitrate=5168.3kbits/s speed=0.0634x    frame=  471 fps=3.8 q=48.0 size=    4985kB time=00:00:07.96 bitrate=5129.4kbits/s speed=0.0635x    frame=  474 fps=3.7 q=47.0 size=    4985kB time=00:00:08.02 bitrate=5091.0kbits/s speed=0.0634x    frame=  476 fps=3.7 q=47.0 size=    4985kB time=00:00:08.06 bitrate=5065.7kbits/s speed=0.0635x    frame=  479 fps=3.7 q=47.0 size=    4985kB time=00:00:08.12 bitrate=5028.3kbits/s speed=0.0635x    frame=  483 fps=3.7 q=47.0 size=    4985kB time=00:00:08.20 bitrate=4979.2kbits/s speed=0.0636x    frame=  486 fps=3.7 q=47.0 size=    4985kB time=00:00:08.26 bitrate=4943.1kbits/s speed=0.0635x    frame=  490 fps=3.7 q=47.0 size=    4985kB time=00:00:08.34 bitrate=4895.7kbits/s speed=0.0636x    frame=  492 fps=3.7 q=47.0 size=    4985kB time=00:00:08.38 bitrate=4872.3kbits/s speed=0.0635x    frame=  494 fps=3.7 q=47.0 size=    4985kB time=00:00:08.42 bitrate=4849.2kbits/s speed=0.0635x    frame=  497 fps=3.7 q=47.0 size=    4985kB time=00:00:08.48 bitrate=4814.9kbits/s speed=0.0636x    frame=  499 fps=3.7 q=47.0 size=    4985kB time=00:00:08.52 bitrate=4792.3kbits/s speed=0.0636x    frame=  500 fps=3.7 q=47.0 size=    4985kB time=00:00:08.54 bitrate=4781.0kbits/s speed=0.0634x    frame=  500 fps=3.2 q=-1.0 Lsize=    9797kB time=00:00:09.94 bitrate=8073.1kbits/s speed=0.0643x    
video:9792kB audio:0kB subtitle:0kB other streams:0kB global headers:0kB muxing overhead: 0.045097%
bench: utime=587.428s
bench: maxrss=2547612kB
[libx264 @ 0x27a11c0] frame I:2     Avg QP:37.27  size:282132
[libx264 @ 0x27a11c0] frame P:134   Avg QP:46.69  size: 37564
[libx264 @ 0x27a11c0] frame B:364   Avg QP:49.25  size: 12167
[libx264 @ 0x27a11c0] consecutive B-frames:  0.4%  2.8% 14.4% 82.4%
[libx264 @ 0x27a11c0] mb I  I16..4: 25.9% 68.8%  5.3%
[libx264 @ 0x27a11c0] mb P  I16..4:  2.7%  3.4%  0.0%  P16..4: 32.1%  1.8%  3.8%  0.0%  0.0%    skip:56.0%
[libx264 @ 0x27a11c0] mb B  I16..4:  0.0%  0.0%  0.0%  B16..8: 35.1%  0.6%  0.0%  direct: 0.1%  skip:64.0%  L0:41.2% L1:58.6% BI: 0.2%
[libx264 @ 0x27a11c0] final ratefactor: 39.47
[libx264 @ 0x27a11c0] 8x8 transform intra:58.3% inter:91.9%
[libx264 @ 0x27a11c0] direct mvs  spatial:99.2% temporal:0.8%
[libx264 @ 0x27a11c0] coded y,uvDC,uvAC intra: 19.5% 41.1% 11.0% inter: 1.3% 3.9% 0.0%
[libx264 @ 0x27a11c0] i16 v,h,dc,p: 38% 23%  6% 34%
[libx264 @ 0x27a11c0] i8 v,h,dc,ddl,ddr,vr,hd,vl,hu:  8%  4% 18% 11% 14% 13% 13% 10%  9%
[libx264 @ 0x27a11c0] i4 v,h,dc,ddl,ddr,vr,hd,vl,hu:  6%  3%  1% 13% 16% 16% 16% 13% 15%
[libx264 @ 0x27a11c0] i8c dc,h,v,p: 62% 16% 14%  8%
[libx264 @ 0x27a11c0] Weighted P-Frames: Y:0.7% UV:0.0%
[libx264 @ 0x27a11c0] ref P L0: 63.6%  2.5% 16.0%  4.6%  4.1%  3.5%  3.6%  2.1%  0.0%
[libx264 @ 0x27a11c0] ref B L0: 94.9%  2.9%  1.1%  0.4%  0.3%  0.2%  0.2%
[libx264 @ 0x27a11c0] ref B L1: 99.0%  1.0%
[libx264 @ 0x27a11c0] kb/s:8021.25
